<?xml version="1.0" encoding="UTF-8" standalone="no"?>
<!-- Created with Inkscape (http://www.inkscape.org/) -->

<svg
   xmlns:dc="http://purl.org/dc/elements/1.1/"
   xmlns:cc="http://creativecommons.org/ns#"
   xmlns:rdf="http://www.w3.org/1999/02/22-rdf-syntax-ns#"
   xmlns:svg="http://www.w3.org/2000/svg"
   xmlns="http://www.w3.org/2000/svg"
   xmlns:xlink="http://www.w3.org/1999/xlink"
   xmlns:sodipodi="http://sodipodi.sourceforge.net/DTD/sodipodi-0.dtd"
   xmlns:inkscape="http://www.inkscape.org/namespaces/inkscape"
   width="1024"
   height="500"
   id="svg2"
   version="1.1"
   inkscape:version="0.48.4 r9939"
   sodipodi:docname="nxtvault-banner.svg"
   inkscape:export-filename="/home/gabo/Plocha/nxtvault-banner-1024x500.png"
   inkscape:export-xdpi="90"
   inkscape:export-ydpi="90">
  <defs
     id="defs4">
    <linearGradient
       inkscape:collect="always"
       id="linearGradient5167">
      <stop
         style="stop-color:#007da5;stop-opacity:1"
         offset="0"
         id="stop5169" />
      <stop
         style="stop-color:#007da5;stop-opacity:0.1"
         offset="1"
         id="stop5171" />
    </linearGradient>
    <linearGradient
       inkscape:collect="always"
       id="linearGradient4751">
      <stop
         style="stop-color:#0088b7;stop-opacity:1"
         offset="0"
         id="stop4753" />
      <stop
         style="stop-color:#002e43;stop-opacity:1"
         offset="1"
         id="stop4755" />
    </linearGradient>
    <linearGradient
       id="linearGradient4601"
       inkscape:collect="always">
      <stop
         id="stop4603"
         offset="0"
         style="stop-color:#004b6e;stop-opacity:1" />
      <stop
         id="stop4605"
         offset="1"
         style="stop-color:#004b6e;stop-opacity:0" />
    </linearGradient>
    <linearGradient
       id="linearGradient4560"
       inkscape:collect="always">
      <stop
         id="stop4562"
         offset="0"
         style="stop-color:#0082aa;stop-opacity:1" />
      <stop
         id="stop4564"
         offset="1"
         style="stop-color:#0082aa;stop-opacity:0" />
    </linearGradient>
    <inkscape:path-effect
       fuse_tolerance="0"
       vertical_pattern="false"
       prop_units="false"
       tang_offset="0"
       normal_offset="0"
       spacing="0"
       scale_y_rel="false"
       prop_scale="1"
       copytype="single_stretched"
       pattern="m 178.101,924.42621 1,0"
       is_visible="true"
       id="path-effect4044"
       effect="skeletal" />
    <inkscape:path-effect
       is_visible="true"
       id="path-effect4042"
       effect="spiro" />
    <inkscape:path-effect
       effect="skeletal"
       id="path-effect3929"
       is_visible="true"
       pattern="m 14.456287,542.58855 1,0"
       copytype="single_stretched"
       prop_scale="1"
       scale_y_rel="false"
       spacing="0"
       normal_offset="0"
       tang_offset="0"
       prop_units="false"
       vertical_pattern="false"
       fuse_tolerance="0" />
    <inkscape:path-effect
       effect="spiro"
       id="path-effect3927"
       is_visible="true" />
    <linearGradient
       inkscape:collect="always"
       id="linearGradient3887">
      <stop
         style="stop-color:#00374f;stop-opacity:1"
         offset="0"
         id="stop3889" />
      <stop
         style="stop-color:#00374f;stop-opacity:0"
         offset="1"
         id="stop3891" />
    </linearGradient>
    <linearGradient
       id="linearGradient3881">
      <stop
         style="stop-color:#00587a;stop-opacity:1"
         offset="0"
         id="stop3883" />
      <stop
         id="stop3885"
         offset="1"
         style="stop-color:#005c7e;stop-opacity:1" />
    </linearGradient>
    <linearGradient
       id="linearGradient3873">
      <stop
         id="stop3875"
         offset="0"
         style="stop-color:#00374f;stop-opacity:1;" />
      <stop
         style="stop-color:#00587a;stop-opacity:1;"
         offset="0.50301117"
         id="stop3877" />
      <stop
         id="stop3879"
         offset="1"
         style="stop-color:#005c7e;stop-opacity:1;" />
    </linearGradient>
    <inkscape:path-effect
       fuse_tolerance="0"
       vertical_pattern="false"
       prop_units="false"
       tang_offset="0"
       normal_offset="0"
       spacing="0"
       scale_y_rel="false"
       prop_scale="1"
       copytype="single_stretched"
       pattern="M 0,0 1,0"
       is_visible="true"
       id="path-effect4181"
       effect="skeletal" />
    <inkscape:path-effect
       is_visible="true"
       id="path-effect4179"
       effect="spiro" />
    <inkscape:path-effect
       effect="skeletal"
       id="path-effect4176"
       is_visible="true"
       pattern="m 407.85714,572.36218 1,0"
       copytype="single_stretched"
       prop_scale="1"
       scale_y_rel="false"
       spacing="0"
       normal_offset="0"
       tang_offset="0"
       prop_units="false"
       vertical_pattern="false"
       fuse_tolerance="0" />
    <inkscape:path-effect
       effect="spiro"
       id="path-effect4174"
       is_visible="true" />
    <inkscape:path-effect
       fuse_tolerance="0"
       vertical_pattern="false"
       prop_units="false"
       tang_offset="0"
       normal_offset="0"
       spacing="0"
       scale_y_rel="false"
       prop_scale="1"
       copytype="single_stretched"
       pattern="m 404.89286,572.82646 1,0"
       is_visible="true"
       id="path-effect4146"
       effect="skeletal" />
    <inkscape:path-effect
       is_visible="true"
       id="path-effect4144"
       effect="spiro" />
    <inkscape:path-effect
       effect="skeletal"
       id="path-effect4129"
       is_visible="true"
       pattern="m -2.9642821,572.82646 1,0"
       copytype="single_stretched"
       prop_scale="1"
       scale_y_rel="false"
       spacing="0"
       normal_offset="0"
       tang_offset="0"
       prop_units="false"
       vertical_pattern="false"
       fuse_tolerance="0" />
    <inkscape:path-effect
       effect="spiro"
       id="path-effect4127"
       is_visible="true" />
    <linearGradient
       id="linearGradient2987-3">
      <stop
         id="stop3871"
         offset="0"
         style="stop-color:#00587a;stop-opacity:1;" />
      <stop
         style="stop-color:#00587a;stop-opacity:1;"
         offset="1"
         id="stop2991-9" />
    </linearGradient>
    <linearGradient
       gradientTransform="translate(-118.57143,-155.21933)"
       y2="160.91391"
       x2="240"
       y1="368.07648"
       x1="240"
       gradientUnits="userSpaceOnUse"
       id="linearGradient4082"
       xlink:href="#linearGradient2987-3"
       inkscape:collect="always" />
    <linearGradient
       inkscape:collect="always"
       xlink:href="#linearGradient2987-3"
       id="linearGradient4109"
       gradientUnits="userSpaceOnUse"
       x1="240"
       y1="368.07648"
       x2="240"
       y2="160.91391" />
    <linearGradient
       inkscape:collect="always"
       xlink:href="#linearGradient2987-3"
       id="linearGradient4171"
       gradientUnits="userSpaceOnUse"
       x1="240"
       y1="368.07648"
       x2="240"
       y2="160.91391" />
    <inkscape:path-effect
       is_visible="true"
       id="path-effect4144-3"
       effect="spiro" />
    <inkscape:path-effect
       fuse_tolerance="0"
       vertical_pattern="false"
       prop_units="false"
       tang_offset="0"
       normal_offset="0"
       spacing="0"
       scale_y_rel="false"
       prop_scale="1"
       copytype="single_stretched"
       pattern="m -38.44643,-0.58929 1,0"
       is_visible="true"
       id="path-effect4146-4"
       effect="skeletal" />
    <inkscape:path-effect
       is_visible="true"
       id="path-effect4144-7"
       effect="spiro" />
    <inkscape:path-effect
       fuse_tolerance="0"
       vertical_pattern="false"
       prop_units="false"
       tang_offset="0"
       normal_offset="0"
       spacing="0"
       scale_y_rel="false"
       prop_scale="1"
       copytype="single_stretched"
       pattern="m -38.44643,-0.58929 1,0"
       is_visible="true"
       id="path-effect4146-7"
       effect="skeletal" />
    <linearGradient
       inkscape:collect="always"
       xlink:href="#linearGradient2987-3"
       id="linearGradient3791"
       gradientUnits="userSpaceOnUse"
       x1="240"
       y1="368.07648"
       x2="240"
       y2="160.91391" />
    <linearGradient
       inkscape:collect="always"
       xlink:href="#linearGradient2987-3"
       id="linearGradient3800"
       gradientUnits="userSpaceOnUse"
       x1="240"
       y1="368.07648"
       x2="240"
       y2="160.91391"
       gradientTransform="translate(9.1785735,515.92682)" />
    <linearGradient
       inkscape:collect="always"
       xlink:href="#linearGradient2987-3"
       id="linearGradient3814"
       gradientUnits="userSpaceOnUse"
       gradientTransform="translate(9.1785735,515.92682)"
       x1="240"
       y1="368.07648"
       x2="240"
       y2="160.91391" />
    <linearGradient
       inkscape:collect="always"
       xlink:href="#linearGradient2987-3"
       id="linearGradient3828"
       gradientUnits="userSpaceOnUse"
       gradientTransform="translate(9.1785735,515.92682)"
       x1="240"
       y1="368.07648"
       x2="240"
       y2="160.91391" />
    <linearGradient
       inkscape:collect="always"
       xlink:href="#linearGradient2987-3"
       id="linearGradient3093"
       gradientUnits="userSpaceOnUse"
       gradientTransform="translate(9.1785735,515.92682)"
       x1="240"
       y1="368.07648"
       x2="240"
       y2="160.91391" />
    <linearGradient
       inkscape:collect="always"
       xlink:href="#linearGradient3887"
       id="linearGradient3893"
       x1="252.85715"
       y1="692.36218"
       x2="421.42859"
       y2="990.93359"
       gradientUnits="userSpaceOnUse"
       gradientTransform="translate(-4.5456865,0)" />
    <inkscape:path-effect
       effect="spiro"
       id="path-effect3927-6"
       is_visible="true" />
    <inkscape:path-effect
       effect="skeletal"
       id="path-effect3929-0"
       is_visible="true"
       pattern="m 369.03572,58.28571 1,0"
       copytype="single_stretched"
       prop_scale="1"
       scale_y_rel="false"
       spacing="0"
       normal_offset="0"
       tang_offset="0"
       prop_units="false"
       vertical_pattern="false"
       fuse_tolerance="0" />
    <linearGradient
       id="linearGradient3881-6">
      <stop
         style="stop-color:#00587a;stop-opacity:1"
         offset="0"
         id="stop3883-8" />
      <stop
         id="stop3885-4"
         offset="1"
         style="stop-color:#005c7e;stop-opacity:1" />
    </linearGradient>
    <linearGradient
       y2="160.91391"
       x2="240"
       y1="371.81931"
       x1="240"
       gradientTransform="matrix(0.85878592,0,0,0.85878592,-101.82747,-133.30021)"
       gradientUnits="userSpaceOnUse"
       id="linearGradient4204"
       xlink:href="#linearGradient3881-6"
       inkscape:collect="always" />
    <linearGradient
       id="linearGradient3881-6-6">
      <stop
         style="stop-color:#00587a;stop-opacity:1"
         offset="0"
         id="stop3883-8-0" />
      <stop
         id="stop3885-4-6"
         offset="1"
         style="stop-color:#005c7e;stop-opacity:1" />
    </linearGradient>
    <linearGradient
       y2="160.91391"
       x2="240"
       y1="371.81931"
       x1="240"
       gradientTransform="matrix(0.86447324,0,0,0.86447324,-123.13759,-154.81879)"
       gradientUnits="userSpaceOnUse"
       id="linearGradient4333"
       xlink:href="#linearGradient3881-6-6"
       inkscape:collect="always" />
    <linearGradient
       inkscape:collect="always"
       id="linearGradient4114-5">
      <stop
         style="stop-color:#003c5a;stop-opacity:1"
         offset="0"
         id="stop4116-1" />
      <stop
         style="stop-color:#003c5a;stop-opacity:0"
         offset="1"
         id="stop4118-7" />
    </linearGradient>
    <linearGradient
       y2="453.21652"
       x2="386.69382"
       y1="194.03114"
       x1="127.50844"
       gradientTransform="matrix(0.27216604,0,0,0.27216604,-25.107497,-44.515672)"
       gradientUnits="userSpaceOnUse"
       id="linearGradient4374"
       xlink:href="#linearGradient4114-5"
       inkscape:collect="always" />
    <linearGradient
       inkscape:collect="always"
       id="linearGradient4114-6">
      <stop
         style="stop-color:#003c5a;stop-opacity:1"
         offset="0"
         id="stop4116-0" />
      <stop
         style="stop-color:#003c5a;stop-opacity:0"
         offset="1"
         id="stop4118-78" />
    </linearGradient>
    <linearGradient
       y2="453.21652"
       x2="386.69382"
       y1="194.03114"
       x1="127.50844"
       gradientTransform="matrix(0.27216604,0,0,0.27216604,-25.107497,-44.515672)"
       gradientUnits="userSpaceOnUse"
       id="linearGradient4407"
       xlink:href="#linearGradient4114-6"
       inkscape:collect="always" />
    <linearGradient
       inkscape:collect="always"
       xlink:href="#linearGradient3881-6"
       id="linearGradient4641"
       gradientUnits="userSpaceOnUse"
       gradientTransform="matrix(0.86447324,0,0,0.86447324,88.86241,725.54339)"
       x1="240"
       y1="371.81931"
       x2="240"
       y2="160.91391" />
    <linearGradient
       inkscape:collect="always"
       xlink:href="#linearGradient4601"
       id="linearGradient4643"
       gradientUnits="userSpaceOnUse"
       gradientTransform="matrix(0.27216604,0,0,0.27216604,215.82607,886.76696)"
       x1="167.77855"
       y1="256.38486"
       x2="423.71716"
       y2="512.32349" />
    <linearGradient
       inkscape:collect="always"
       xlink:href="#linearGradient3881-6-6"
       id="linearGradient4645"
       gradientUnits="userSpaceOnUse"
       gradientTransform="matrix(0.86447324,0,0,0.86447324,88.86241,725.54339)"
       x1="240"
       y1="371.81931"
       x2="240"
       y2="160.91391" />
    <radialGradient
       inkscape:collect="always"
       xlink:href="#linearGradient4751"
       id="radialGradient4801"
       gradientUnits="userSpaceOnUse"
       gradientTransform="matrix(-8.3101316e-7,-2.8910074,1.8439851,-9.5724159e-6,-1193.523,1914.152)"
       cx="369.00003"
       cy="847.36218"
       fx="369.00003"
       fy="847.36218"
       r="96" />
    <linearGradient
       inkscape:collect="always"
       id="linearGradient4751-5">
      <stop
         style="stop-color:#0088b7;stop-opacity:1"
         offset="0"
         id="stop4753-9" />
      <stop
         style="stop-color:#002e43;stop-opacity:1"
         offset="1"
         id="stop4755-3" />
    </linearGradient>
    <radialGradient
       r="96"
       fy="847.36218"
       fx="369.00003"
       cy="847.36218"
       cx="369.00003"
       gradientTransform="matrix(-3.4625549e-6,-12.045864,7.6832713,-3.9885067e-5,-5773.0125,5190.7909)"
       gradientUnits="userSpaceOnUse"
       id="radialGradient4898"
       xlink:href="#linearGradient4751-5"
       inkscape:collect="always" />
    <clipPath
       clipPathUnits="userSpaceOnUse"
       id="clipPath5018">
      <rect
         style="color:#000000;fill:#ffffff;fill-opacity:1;fill-rule:nonzero;stroke:none;stroke-width:1;marker:none;visibility:visible;display:inline;overflow:visible;enable-background:accumulate"
         id="rect5020"
         width="280.6691"
         height="137.04546"
         x="-44.334545"
         y="696.88275" />
    </clipPath>
    <radialGradient
       inkscape:collect="always"
       xlink:href="#linearGradient4751-5"
       id="radialGradient5057"
       gradientUnits="userSpaceOnUse"
       gradientTransform="matrix(-3.4625549e-6,-12.045864,7.6832713,-3.9885067e-5,-5796.0125,4840.1531)"
       cx="369.00003"
       cy="847.36218"
       fx="369.00003"
       fy="847.36218"
       r="96" />
    <linearGradient
       inkscape:collect="always"
       xlink:href="#linearGradient4560"
       id="linearGradient5143"
       gradientUnits="userSpaceOnUse"
       gradientTransform="matrix(0.27216604,0,0,0.27216604,215.82607,1078.767)"
       x1="140.49879"
       y1="207.0215"
       x2="427.64789"
       y2="494.17059" />
    <clipPath
       clipPathUnits="userSpaceOnUse"
       id="clipPath5205">
      <rect
         y="714.72058"
         x="467.18433"
         height="101.38248"
         width="207.63133"
         id="rect5207"
         style="color:#000000;fill:#ffffff;fill-opacity:1;fill-rule:nonzero;stroke:none;stroke-width:1;marker:none;visibility:visible;display:inline;overflow:visible;enable-background:accumulate" />
    </clipPath>
    <linearGradient
       inkscape:collect="always"
       xlink:href="#linearGradient5167"
       id="linearGradient5291"
       gradientUnits="userSpaceOnUse"
       gradientTransform="matrix(0.27216604,0,0,0.27216604,215.82607,886.76699)"
       x1="140.49879"
       y1="207.0215"
       x2="412.88327"
       y2="479.40598" />
  </defs>
  <sodipodi:namedview
     id="base"
     pagecolor="#ffffff"
     bordercolor="#666666"
     borderopacity="1.0"
     inkscape:pageopacity="0"
     inkscape:pageshadow="2"
     inkscape:zoom="0.5"
     inkscape:cx="745.55466"
     inkscape:cy="208.49274"
     inkscape:document-units="px"
     inkscape:current-layer="g5199"
     showgrid="false"
     inkscape:window-width="489"
     inkscape:window-height="383"
     inkscape:window-x="146"
     inkscape:window-y="46"
     inkscape:window-maximized="0"
     showguides="true"
     inkscape:guide-bbox="true"
     inkscape:snap-global="true">
    <inkscape:grid
       type="xygrid"
       id="grid4129"
       empspacing="4"
       visible="true"
       enabled="true"
       snapvisiblegridlinesonly="true"
       dotted="false" />
  </sodipodi:namedview>
  <metadata
     id="metadata7">
    <rdf:RDF>
      <cc:Work
         rdf:about="">
        <dc:format>image/svg+xml</dc:format>
        <dc:type
           rdf:resource="http://purl.org/dc/dcmitype/StillImage" />
        <dc:title></dc:title>
      </cc:Work>
    </rdf:RDF>
  </metadata>
  <g
     inkscape:label="Vrstva 1"
     inkscape:groupmode="layer"
     id="layer1"
     transform="translate(0,-552.36218)">
    <g
       id="g5209"
       inkscape:export-xdpi="90"
       inkscape:export-ydpi="90"
       transform="translate(135,753.00001)">
      <rect
         y="-200.63783"
         x="-135"
         height="500"
         width="1024"
         id="rect4871"
         style="color:#000000;fill:url(#radialGradient5057);fill-opacity:1;fill-rule:nonzero;stroke:none;stroke-width:1;marker:none;visibility:visible;display:inline;overflow:visible;enable-background:accumulate" />
      <g
         clip-path="url(#clipPath5205)"
         transform="matrix(4.9318182,0,0,4.9318182,-2439.0682,-3725.5099)"
         id="g5191">
        <path
           inkscape:connector-curvature="0"
           id="path5193"
           d="m 659,764.36217 c 0,48.60105 -39.39892,88.00001 -88,88.00001 -48.60105,0 -88,-39.39896 -88,-88.00001 0,-48.60103 39.39895,-87.99999 88,-87.99999 48.60108,0 88,39.39896 88,87.99999 z"
           style="opacity:0.2;color:#000000;fill:#008fbb;fill-opacity:1;fill-rule:nonzero;stroke:none;stroke-width:1;marker:none;visibility:visible;display:inline;overflow:visible;enable-background:accumulate" />
        <path
           style="opacity:0.4;color:#000000;fill:#008fbb;fill-opacity:1;fill-rule:nonzero;stroke:none;stroke-width:1;marker:none;visibility:visible;display:inline;overflow:visible;enable-background:accumulate"
           d="m 647.0962,763.3189 c 0,42.02677 -34.0694,76.09619 -76.09619,76.09619 -42.02677,0 -76.0962,-34.06942 -76.0962,-76.09619 0,-42.02675 34.06943,-76.09619 76.0962,-76.09619 42.02679,0 76.09619,34.06944 76.09619,76.09619 z"
           id="path5195"
           inkscape:connector-curvature="0" />
        <path
           inkscape:connector-curvature="0"
           id="path5197"
           d="m 635.89261,763.3189 c 0,35.83919 -29.05339,64.89261 -64.8926,64.89261 -35.8392,0 -64.89262,-29.05342 -64.89262,-64.89261 0,-35.83916 29.05342,-64.89261 64.89262,-64.89261 35.83921,0 64.8926,29.05345 64.8926,64.89261 z"
           style="color:#000000;fill:#008fbb;fill-opacity:1;fill-rule:nonzero;stroke:none;stroke-width:1;marker:none;visibility:visible;display:inline;overflow:visible;enable-background:accumulate" />
        <g
           id="g5199">
          <g
             transform="matrix(0.67993437,0,0,0.67993437,505.70184,117.5267)"
             id="g4239">
            <g
               transform="matrix(1.4696681,0,0,1.4696681,-743.19671,-172.01419)"
               id="g4241">
              <path
                 style="color:#000000;fill:#ffffff;fill-opacity:1;stroke:none;stroke-width:7;marker:none;visibility:visible;display:inline;overflow:visible;enable-background:accumulate"
                 d="m 544.71104,741.42468 c -0.55114,-8.4e-4 -1.10799,0.0234 -1.65625,0.0625 -7.31011,0.5217 -14.23017,4.54358 -18.15625,11.34375 -6.28173,10.88028 -2.53652,24.87452 8.34375,31.15625 10.88028,6.28173 24.84326,2.50527 31.125,-8.375 a 3.0003,3.0003 0 0 0 0.0625,-0.0625 c 0.0639,-3e-4 0.0897,3.3e-4 0.15625,0 l 3,-0.0312 0.5,-0.21875 c 1.91119,-0.94122 1.91129,-3.62436 0,-4.5625 l -0.4375,-0.21875 -3.1875,0 -3.1875,0 0,0.0312 -0.4375,0.1875 c -0.48787,0.23955 -1.02608,0.79543 -1.25,1.28125 -0.004,0.008 0.003,0.0234 0,0.0312 a 3.0003,3.0003 0 0 0 -0.375,0.59375 c -4.66041,8.07207 -14.92793,10.81666 -23,6.15625 -8.07207,-4.66041 -10.7854,-14.92793 -6.125,-23 4.66041,-8.07207 14.89668,-10.78541 22.96875,-6.125 2.55596,1.47568 4.68057,3.56904 6.15625,6.125 a 3.0003,3.0003 0 1 0 5.15625,-2.96875 c -2.00215,-3.4678 -4.87595,-6.3416 -8.34375,-8.34375 -3.57009,-2.06118 -7.45454,-3.05659 -11.3125,-3.0625 z m -6.6875,17.65625 c -2.83974,0 -5.15625,2.34777 -5.15625,5.1875 0,2.83972 2.31651,5.09375 5.15625,5.09375 2.83972,0 5.125,-2.25403 5.125,-5.09375 0,-2.83973 -2.28528,-5.1875 -5.125,-5.1875 z m 26.3125,1.28125 -3.0625,0.0312 -0.4375,0.1875 c -0.48787,0.23957 -1.02608,0.82665 -1.25,1.3125 -0.22767,0.49395 -0.22767,1.50607 0,2 0.22392,0.48583 0.76199,1.04148 1.25,1.28125 l 0.4375,0.21875 2.5,0.0312 2.5,0.0312 7.375,4.9375 c 4.90745,3.27584 7.54544,4.98899 7.78125,5.0625 0.29612,0.0924 0.83256,0.10612 3.34375,0.0937 l 3.03125,-0.0312 0.5,-0.21875 c 1.91118,-0.94125 1.91127,-3.62434 0,-4.5625 l -0.4375,-0.1875 -2.46875,-0.0312 -2.5,-0.0312 -7.34375,-4.9375 c -4.92429,-3.29867 -7.5192,-4.97263 -7.78125,-5.0625 -0.26985,-0.0925 -0.49884,-0.12487 -1.78125,-0.125 -0.42746,-6e-5 -0.95398,-0.006 -1.65625,0 z m 20.21875,0 -3.0625,0.0312 -0.4375,0.1875 c -0.48784,0.23957 -1.02608,0.82665 -1.25,1.3125 -0.22768,0.49395 -0.22768,1.50607 0,2 0.2239,0.48583 0.76199,1.04148 1.25,1.28125 l 0.4375,0.21875 2.5,0.0312 2.5,0.0312 7.375,4.9375 c 4.92437,3.28711 7.5446,4.98902 7.78125,5.0625 0.30178,0.0937 1.00551,0.106 4.71875,0.0937 l 4.375,-0.0312 0.5,-0.21875 c 0.5676,-0.2795 0.94999,-0.67065 1.21875,-1.25 0.27358,-0.58983 0.27386,-1.43901 0,-2.03125 -0.25743,-0.55505 -0.69894,-0.98681 -1.21875,-1.25 l -0.4375,-0.21875 -3.84375,-0.0312 -3.8125,-0.0312 -7.375,-4.9375 c -4.80695,-3.21803 -7.52425,-4.97217 -7.78125,-5.0625 -0.27446,-0.0966 -0.46382,-0.125 -1.75,-0.125 -0.42875,-10e-6 -0.97668,-0.007 -1.6875,0 z m 17.15625,0.0312 -0.4375,0.1875 c -0.4879,0.23962 -1.02608,0.82666 -1.25,1.3125 -0.22768,0.49395 -0.22768,1.50607 0,2 0.22391,0.48583 0.76196,1.04147 1.25,1.28125 l 0.4375,0.21875 6.6875,0 6.71875,0.0312 0,1.5 c 0,1.35646 0.0138,1.55673 0.15625,1.9375 0.17009,0.45462 0.65717,1.01144 1.09375,1.28125 0.6788,0.41952 1.60514,0.44147 2.375,0.0625 0.54942,-0.27048 0.94875,-0.6742 1.21875,-1.25 l 0.1875,-0.40625 0,-3.125 0,-3.125 -0.25,-0.5 c -0.26724,-0.54285 -0.6963,-0.97476 -1.25,-1.25 l -0.34375,-0.15625 -8.3125,0 -8.28125,0 z"
                 id="path4243"
                 inkscape:connector-curvature="0" />
            </g>
            <path
               style="font-size:medium;font-style:normal;font-variant:normal;font-weight:normal;font-stretch:normal;text-indent:0;text-align:start;text-decoration:none;line-height:normal;letter-spacing:normal;word-spacing:normal;text-transform:none;direction:ltr;block-progression:tb;writing-mode:lr-tb;text-anchor:start;baseline-shift:baseline;color:#000000;fill:#ffffff;fill-opacity:1;stroke:none;stroke-width:6.30000019;marker:none;visibility:visible;display:inline;overflow:visible;enable-background:accumulate;font-family:Sans;-inkscape-font-specification:Sans"
               d="m 82.432309,934.57638 c -1.867413,0.20705 -3.410035,2.01883 -3.316674,3.89537 0.09336,1.87654 1.808195,3.52625 3.686938,3.54693 l 81.557107,0 c 2.0457,0.16082 4.02516,-1.66914 4.02516,-3.72115 0,-2.05201 -1.97946,-3.88197 -4.02516,-3.72115 l -81.557107,0 c -0.12332,-0.006 -0.246944,-0.006 -0.370264,0 z"
               id="path4245"
               inkscape:connector-curvature="0"
               sodipodi:nodetypes="csccsccc" />
          </g>
        </g>
      </g>
    </g>
  </g>
</svg>
